
<svg width="500px" height="500px" viewBox="0 0 512 444" version="1.1" xmlns="http://www.w3.org/2000/svg" xmlns:xlink="http://www.w3.org/1999/xlink">
    <!-- Generator: Sketch 44.1 (41455) - http://www.bohemiancoding.com/sketch -->
    <desc>Created with Sketch.</desc>
    <defs></defs>
    <g id="Page-1" stroke="none" stroke-width="1" fill="none" fill-rule="evenodd">
        <g id="auction" fill-rule="nonzero" fill="#3C4253">
            <path d="M68.269,290.268 L204.802,290.268 C214.214,290.268 221.869,282.614 221.869,273.201 L221.869,239.068 C221.869,229.656 214.215,222.001 204.802,222.001 L110.935,222.001 C106.225,222.001 102.402,225.824 102.402,230.534 C102.402,235.244 106.225,239.067 110.935,239.067 L204.802,239.067 L204.802,273.2 L68.269,273.2 L68.269,239.067 L76.802,239.067 C81.512,239.067 85.335,235.244 85.335,230.534 L85.335,94.001 C85.335,89.291 81.512,85.468 76.802,85.468 C72.092,85.468 68.269,89.291 68.269,94.001 L68.269,222.001 C58.857,222.001 51.202,229.655 51.202,239.068 L51.202,273.201 C51.202,282.613 58.857,290.268 68.269,290.268 Z" id="Shape"></path>
            <path d="M170.925,313.794 L162.392,347.927 C161.249,352.501 164.03,357.126 168.596,358.278 C169.296,358.449 169.987,358.534 170.678,358.534 C174.501,358.534 177.974,355.94 178.947,352.066 L187.48,317.941 C188.623,313.367 185.842,308.734 181.276,307.59 C176.71,306.447 172.077,309.229 170.925,313.794 Z" id="Shape"></path>
            <path d="M68.269,68.401 L162.136,68.401 C166.846,68.401 170.669,64.578 170.669,59.868 C170.669,55.158 166.846,51.335 162.136,51.335 L68.269,51.335 L68.269,17.201 L204.802,17.201 L204.802,51.334 L196.269,51.334 C191.559,51.334 187.736,55.157 187.736,59.867 L187.736,196.4 C187.736,201.11 191.559,204.933 196.269,204.933 C200.979,204.933 204.802,201.11 204.802,196.4 L204.802,68.4 C214.214,68.4 221.869,60.746 221.869,51.333 L221.869,17.201 C221.869,7.789 214.215,0.134 204.802,0.134 L68.269,0.134 C58.857,0.134 51.202,7.788 51.202,17.201 L51.202,51.334 C51.202,60.747 58.857,68.401 68.269,68.401 Z" id="Shape"></path>
            <path d="M230.402,119.601 L435.202,119.601 C439.912,119.601 443.735,115.778 443.735,111.068 C443.735,106.358 439.912,102.535 435.202,102.535 L230.402,102.535 C225.692,102.535 221.869,106.358 221.869,111.068 C221.869,115.778 225.692,119.601 230.402,119.601 Z" id="Shape"></path>
            <path d="M258.502,309.835 L224.369,343.968 C221.032,347.305 221.032,352.698 224.369,356.034 C226.033,357.698 228.218,358.534 230.402,358.534 C232.587,358.534 234.771,357.698 236.435,356.034 L270.568,321.901 C273.905,318.565 273.905,313.171 270.568,309.835 C267.232,306.498 261.839,306.498 258.502,309.835 Z" id="Shape"></path>
            <path d="M91.795,307.59 C87.23,308.733 84.448,313.367 85.591,317.941 L94.124,352.066 C95.097,355.94 98.57,358.534 102.393,358.534 C103.084,358.534 103.775,358.449 104.475,358.278 C109.04,357.126 111.822,352.501 110.679,347.927 L102.146,313.794 C101.003,309.229 96.369,306.447 91.795,307.59 Z" id="Shape"></path>
            <path d="M494.935,85.468 L477.868,85.468 C468.456,85.468 460.801,93.122 460.801,102.535 L460.801,145.202 C460.801,149.912 464.624,153.735 469.334,153.735 C474.044,153.735 477.867,149.912 477.867,145.202 L477.867,102.535 L494.934,102.535 L494.934,187.868 L477.867,187.868 L477.867,179.335 C477.867,174.625 474.044,170.802 469.334,170.802 L230.402,170.802 C225.692,170.802 221.869,174.625 221.869,179.335 C221.869,184.045 225.692,187.868 230.402,187.868 L460.802,187.868 C460.802,197.28 468.456,204.935 477.869,204.935 L494.936,204.935 C504.348,204.935 512.003,197.281 512.003,187.868 L512.003,102.535 C512.002,93.122 504.348,85.468 494.935,85.468 Z" id="Shape"></path>
            <path d="M247.469,375.601 L25.602,375.601 C11.488,375.601 0.002,387.087 0.002,401.201 L0.002,435.334 C0.002,440.044 3.825,443.867 8.535,443.867 L264.535,443.867 C269.245,443.867 273.068,440.044 273.068,435.334 L273.068,401.201 C273.069,387.087 261.583,375.601 247.469,375.601 Z M256.002,426.801 L17.069,426.801 L17.069,401.201 C17.069,396.499 20.9,392.668 25.602,392.668 L247.469,392.668 C252.171,392.668 256.002,396.499 256.002,401.201 L256.002,426.801 Z" id="Shape"></path>
            <path d="M36.636,356.034 C38.3,357.698 40.485,358.534 42.669,358.534 C44.854,358.534 47.038,357.698 48.702,356.034 C52.039,352.697 52.039,347.296 48.702,343.959 L14.569,309.834 C11.232,306.497 5.839,306.497 2.503,309.834 C-0.833,313.17 -0.833,318.564 2.503,321.9 L36.636,356.034 Z" id="Shape"></path>
        </g>
    </g>
</svg>