
<svg width="500px" height="500px" viewBox="0 0 512 512" version="1.1" xmlns="http://www.w3.org/2000/svg" xmlns:xlink="http://www.w3.org/1999/xlink">
    <!-- Generator: Sketch 44.1 (41455) - http://www.bohemiancoding.com/sketch -->
    <desc>Created with Sketch.</desc>
    <defs></defs>
    <g id="Page-1" stroke="none" stroke-width="1" fill="none" fill-rule="evenodd">
        <g id="handshake" fill-rule="nonzero" fill="#3C4253">
            <path d="M136.425,235.442 C136.425,240.007 138.208,244.291 141.434,247.508 L147.467,253.541 C155.531,261.596 166.232,266.034 177.632,266.034 C189.033,266.034 199.742,261.597 207.806,253.541 L250.311,211.036 C267.147,225.099 288.165,232.753 310.352,232.753 L310.395,232.753 C335.474,232.736 359.078,222.948 376.836,205.182 C380.173,201.846 380.173,196.444 376.836,193.116 C373.499,189.779 368.106,189.779 364.77,193.116 C350.229,207.657 330.91,215.678 310.387,215.687 L310.361,215.687 C289.855,215.687 270.579,207.7 256.08,193.202 C252.743,189.874 247.342,189.874 244.014,193.202 L195.732,241.475 C186.072,251.143 169.202,251.143 159.534,241.475 L153.501,235.442 L256.08,132.863 C265.646,123.297 274.734,123.297 286.245,123.297 C298.567,123.297 313.919,123.297 328.485,108.731 L352.617,84.59 C355.953,81.254 355.953,75.852 352.617,72.524 C349.289,69.187 343.887,69.187 340.551,72.524 L316.419,96.665 C306.845,106.231 297.757,106.231 286.245,106.231 C273.923,106.231 258.58,106.231 244.014,120.797 L141.442,223.367 C138.208,226.593 136.425,230.877 136.425,235.442 Z" id="Shape"></path>
            <path d="M76.802,93.891 C86.214,93.891 93.869,86.237 93.869,76.824 C93.869,67.412 86.215,59.757 76.802,59.757 C67.39,59.757 59.735,67.411 59.735,76.824 C59.735,86.237 67.39,93.891 76.802,93.891 Z" id="Shape"></path>
            <path d="M159.533,120.797 L183.665,144.929 C185.337,146.602 187.522,147.429 189.698,147.429 C191.883,147.429 194.067,146.601 195.731,144.929 C199.068,141.601 199.068,136.199 195.731,132.863 L171.599,108.731 C168.271,105.395 162.869,105.395 159.533,108.731 C156.205,112.059 156.205,117.46 159.533,120.797 Z" id="Shape"></path>
            <path d="M435.202,59.758 C444.606,59.758 452.269,52.104 452.269,42.691 C452.269,33.279 444.606,25.624 435.202,25.624 C425.798,25.624 418.135,33.278 418.135,42.691 C418.135,52.103 425.798,59.758 435.202,59.758 Z" id="Shape"></path>
            <path d="M454.769,181.725 C440.902,195.592 436.141,218.179 431.541,240.025 C427.462,259.413 423.238,279.475 412.964,289.749 L400.889,301.815 C397.561,305.152 397.561,310.553 400.889,313.881 C402.561,315.554 404.746,316.381 406.931,316.381 C409.107,316.381 411.292,315.553 412.964,313.881 L425.03,301.815 C438.888,287.957 443.641,265.378 448.241,243.541 C452.328,224.136 456.561,204.074 466.835,193.792 C470.172,190.464 470.172,185.062 466.835,181.726 C463.499,178.388 458.106,178.388 454.769,181.725 Z" id="Shape"></path>
            <path d="M509.502,181.725 L370.468,42.691 L398.568,14.591 C401.905,11.254 401.905,5.861 398.568,2.525 C395.231,-0.811 389.838,-0.811 386.502,2.525 L352.369,36.658 C349.032,39.995 349.032,45.388 352.369,48.724 L497.436,193.791 C499.1,195.455 501.285,196.291 503.469,196.291 C505.653,196.291 507.838,195.455 509.502,193.791 C512.838,190.454 512.838,185.061 509.502,181.725 Z" id="Shape"></path>
            <path d="M316.418,253.541 C313.081,250.213 307.688,250.213 304.352,253.541 C301.016,256.878 301.016,262.279 304.352,265.616 L394.857,356.121 C401.513,362.777 401.513,373.606 394.857,380.262 C388.218,386.901 377.381,386.909 370.716,380.262 L280.211,289.749 C276.874,286.412 271.473,286.412 268.145,289.749 C264.808,293.086 264.808,298.487 268.145,301.815 L382.79,416.46 C389.446,423.116 389.446,433.945 382.79,440.592 C376.134,447.239 365.314,447.257 358.649,440.6 L250.046,331.988 C246.709,328.651 241.308,328.651 237.98,331.988 C234.643,335.316 234.643,340.718 237.98,344.054 L334.518,440.592 C341.174,447.248 341.174,458.077 334.518,464.733 C328.067,471.184 316.837,471.184 310.386,464.725 L298.311,452.659 L298.302,452.659 L219.872,374.229 C216.535,370.893 211.134,370.893 207.806,374.229 C204.47,377.557 204.47,382.959 207.806,386.295 L286.244,464.733 C289.47,467.959 291.245,472.242 291.245,476.808 C291.245,481.365 289.47,485.649 286.244,488.874 C279.605,495.513 268.768,495.53 262.112,488.865 L116.969,343.858 C94.842,321.731 90.038,293.836 85.797,269.217 C82.23,248.507 78.859,228.948 65.769,215.858 C62.432,212.521 57.039,212.521 53.703,215.858 C50.367,219.195 50.366,224.588 53.703,227.924 C62.962,237.183 65.752,253.37 68.978,272.118 C73.415,297.889 78.945,329.965 104.903,355.924 L250.046,500.94 C256.693,507.587 265.432,510.924 274.178,510.924 C282.916,510.915 291.663,507.587 298.31,500.94 C303.157,496.085 306.374,490.034 307.671,483.447 C320.181,489.48 336.471,486.929 346.583,476.8 C351.438,471.945 354.647,465.886 355.944,459.298 C368.633,465.391 384.351,463.164 394.856,452.659 C408.168,439.356 408.168,417.706 394.856,404.394 L391.622,401.151 C397.228,399.658 402.536,396.714 406.931,392.328 C420.234,379.016 420.234,357.358 406.931,344.055 L316.418,253.541 Z" id="Shape"></path>
            <path d="M159.635,70.791 L108.435,19.591 C105.099,16.254 99.705,16.254 96.369,19.591 C93.032,22.927 93.032,28.321 96.369,31.657 L141.536,76.824 L2.502,215.858 C-0.834,219.195 -0.834,224.588 2.502,227.924 C4.166,229.588 6.351,230.424 8.535,230.424 C10.719,230.424 12.904,229.588 14.568,227.924 L159.635,82.858 C162.972,79.521 162.972,74.128 159.635,70.791 Z" id="Shape"></path>
            <path d="M209.879,493.379 C205.126,495.871 197.011,496.169 189.698,488.873 C182.385,481.551 182.445,473.044 184.817,469.34 C187.172,465.671 186.387,460.824 182.982,458.085 C179.594,455.346 174.688,455.602 171.599,458.699 C164.934,465.355 154.097,465.346 147.458,458.699 C140.811,452.043 140.811,441.214 147.458,434.558 C149.131,432.894 149.958,430.709 149.958,428.525 C149.958,426.341 149.13,424.164 147.458,422.492 C144.13,419.164 138.728,419.164 135.392,422.492 L129.359,428.525 C122.712,435.181 111.874,435.181 105.227,428.525 C98.58,421.869 98.58,411.04 105.227,404.393 L111.26,398.36 C114.298,395.331 114.605,390.518 111.994,387.122 C109.383,383.726 104.647,382.796 100.952,384.937 C96.31,387.616 88.143,387.301 81.095,380.261 C73.603,372.769 73.637,364.466 76.052,360.967 C78.731,357.093 77.75,351.777 73.876,349.097 C69.993,346.409 64.686,347.39 62.006,351.273 C55.103,361.274 55.29,378.588 69.029,392.327 C74.439,397.729 80.327,400.954 86.13,402.499 C84.184,406.834 83.16,411.57 83.16,416.46 C83.16,425.574 86.71,434.15 93.161,440.592 C101.916,449.356 114.298,452.351 125.536,449.578 C126.202,457.309 129.487,464.861 135.392,470.766 C143.883,479.248 155.744,482.32 166.684,479.999 C167.742,487.065 171.164,494.463 177.632,500.94 C185.525,508.825 194.741,511.982 203.155,511.982 C208.557,511.982 213.625,510.676 217.798,508.492 C221.971,506.307 223.584,501.153 221.391,496.972 C219.206,492.807 214.035,491.186 209.879,493.379 Z" id="Shape"></path>
        </g>
    </g>
</svg>