
<svg width="512px" height="512px" viewBox="0 0 512 512" version="1.1" xmlns="http://www.w3.org/2000/svg" xmlns:xlink="http://www.w3.org/1999/xlink">
    <!-- Generator: Sketch 44.1 (41455) - http://www.bohemiancoding.com/sketch -->
    <desc>Created with Sketch.</desc>
    <defs></defs>
    <g id="Page-1" stroke="none" stroke-width="1" fill="none" fill-rule="evenodd">
        <g id="presentation" fill-rule="nonzero" fill="#3C4253">
            <path d="M110.933,238.933 L136.533,238.933 C141.243,238.933 145.066,235.11 145.066,230.4 C145.066,225.69 141.243,221.867 136.533,221.867 L110.933,221.867 C106.223,221.867 102.4,225.69 102.4,230.4 C102.4,235.11 106.223,238.933 110.933,238.933 Z" id="Shape"></path>
            <path d="M110.933,136.533 L179.2,136.533 C183.91,136.533 187.733,132.71 187.733,128 C187.733,123.29 183.91,119.467 179.2,119.467 L110.933,119.467 C106.223,119.467 102.4,123.29 102.4,128 C102.4,132.71 106.223,136.533 110.933,136.533 Z" id="Shape"></path>
            <path d="M264.533,221.867 L179.2,221.867 C174.49,221.867 170.667,225.69 170.667,230.4 C170.667,235.11 174.49,238.933 179.2,238.933 L264.533,238.933 C269.243,238.933 273.066,235.11 273.066,230.4 C273.066,225.69 269.244,221.867 264.533,221.867 Z" id="Shape"></path>
            <path d="M256,375.467 L59.733,375.467 C45.141,375.467 34.133,364.459 34.133,349.867 L34.133,93.867 C34.133,89.157 30.31,85.334 25.6,85.334 C20.89,85.334 17.067,89.157 17.067,93.867 L17.067,349.867 C17.067,373.794 35.806,392.534 59.734,392.534 L256,392.534 C260.71,392.534 264.533,388.711 264.533,384.001 C264.533,379.291 260.71,375.467 256,375.467 Z" id="Shape"></path>
            <path d="M110.933,187.733 L264.533,187.733 C269.243,187.733 273.066,183.91 273.066,179.2 C273.066,174.49 269.243,170.667 264.533,170.667 L110.933,170.667 C106.223,170.667 102.4,174.49 102.4,179.2 C102.4,183.91 106.223,187.733 110.933,187.733 Z" id="Shape"></path>
            <path d="M341.257,280.448 C340.677,276.224 337.067,273.067 332.8,273.067 L110.933,273.067 C106.223,273.067 102.4,276.89 102.4,281.6 C102.4,303.036 122.359,341.333 162.133,341.333 L273.877,341.333 L290.176,504.32 C290.62,508.715 294.323,512 298.658,512 C298.94,512 299.23,511.983 299.52,511.957 C304.205,511.488 307.627,507.306 307.157,502.613 L290.09,331.946 C289.655,327.585 285.985,324.266 281.599,324.266 L187.732,324.266 L187.732,290.133 L325.35,290.133 L349.943,470.485 C350.574,475.161 354.901,478.447 359.552,477.79 C364.22,477.15 367.488,472.849 366.857,468.181 L341.257,280.448 Z M170.667,324.267 L162.134,324.267 C138.258,324.267 125.116,304.086 120.944,290.134 L170.668,290.134 L170.668,324.267 L170.667,324.267 Z" id="Shape"></path>
            <path d="M247.467,136.533 C252.177,136.533 256,132.71 256,128 C256,123.29 252.177,119.467 247.467,119.467 L213.334,119.467 C208.624,119.467 204.801,123.29 204.801,128 C204.801,132.71 208.624,136.533 213.334,136.533 L247.467,136.533 Z" id="Shape"></path>
            <path d="M358.4,153.6 L349.867,153.6 C345.157,153.6 341.334,157.423 341.334,162.133 C341.334,166.843 345.157,170.666 349.867,170.666 L358.4,170.666 C363.11,170.666 366.933,166.843 366.933,162.133 C366.933,157.423 363.11,153.6 358.4,153.6 Z" id="Shape"></path>
            <path d="M418.688,273.178 C414.234,273.169 410.283,276.148 409.677,280.551 L384.077,468.182 C383.446,472.85 386.705,477.151 391.382,477.791 C391.775,477.842 392.159,477.868 392.551,477.868 C396.749,477.868 400.402,474.77 400.99,470.487 L425.575,290.323 C455.041,291.065 475.196,296.663 485.539,306.989 C491.862,313.295 494.934,321.743 494.934,332.802 L494.934,469.335 C494.934,474.045 498.757,477.868 503.467,477.868 C508.177,477.868 512,474.045 512,469.335 L512,332.8 C512,317.193 507.153,304.444 497.596,294.912 C482.953,280.286 457.139,273.178 418.688,273.178 Z" id="Shape"></path>
            <path d="M503.467,17.067 L264.533,17.067 L264.533,8.533 C264.533,3.823 260.71,0 256,0 C251.29,0 247.467,3.823 247.467,8.533 L247.467,17.066 L8.533,17.066 C3.823,17.067 0,20.89 0,25.6 L0,59.733 C0,64.443 3.823,68.266 8.533,68.266 L452.266,68.266 C456.976,68.266 460.799,64.443 460.799,59.733 C460.799,55.023 456.976,51.2 452.266,51.2 L17.066,51.2 L17.066,34.133 L494.933,34.133 L494.933,51.2 L486.4,51.2 C481.69,51.2 477.867,55.023 477.867,59.733 L477.867,264.533 C477.867,269.243 481.69,273.066 486.4,273.066 C491.11,273.066 494.933,269.243 494.933,264.533 L494.933,68.267 L503.466,68.267 C508.176,68.267 511.999,64.444 511.999,59.734 L511.999,25.6 C512,20.89 508.177,17.067 503.467,17.067 Z" id="Shape"></path>
            <path d="M452.267,375.467 C447.557,375.467 443.734,379.29 443.734,384 L443.734,503.467 C443.734,508.177 447.557,512 452.267,512 C456.977,512 460.8,508.177 460.8,503.467 L460.8,384 C460.8,379.29 456.977,375.467 452.267,375.467 Z" id="Shape"></path>
            <path d="M392.533,290.133 C392.533,280.721 384.879,273.066 375.466,273.066 C366.054,273.066 358.399,280.72 358.399,290.133 C358.399,296.422 361.855,301.866 366.932,304.827 L366.932,366.933 C366.932,371.643 370.755,375.466 375.465,375.466 C380.175,375.466 383.998,371.643 383.998,366.933 L383.998,304.827 C389.077,301.867 392.533,296.422 392.533,290.133 Z" id="Shape"></path>
            <path d="M401.067,153.6 L392.534,153.6 C387.824,153.6 384.001,157.423 384.001,162.133 C384.001,166.843 387.824,170.666 392.534,170.666 L401.067,170.666 C405.777,170.666 409.6,166.843 409.6,162.133 C409.6,157.423 405.777,153.6 401.067,153.6 Z" id="Shape"></path>
            <path d="M392.533,85.333 L358.4,85.333 C330.163,85.333 307.2,108.296 307.2,136.533 L307.2,138.828 C302.106,141.781 298.667,147.293 298.667,153.599 L298.667,170.666 C298.667,177.1 302.251,182.724 307.533,185.625 C309.154,202.026 316.288,216.464 316.638,217.147 C324.369,232.619 336.06,256 375.467,256 C414.874,256 426.565,232.619 434.304,217.148 C434.645,216.465 441.779,202.027 443.401,185.626 C448.683,182.725 452.267,177.101 452.267,170.667 L452.267,153.6 C452.267,147.294 448.828,141.781 443.734,138.829 L443.734,136.534 C443.733,108.297 420.77,85.333 392.533,85.333 Z M435.2,170.667 C430.49,170.667 426.667,174.49 426.667,179.2 C426.667,193.963 419.106,209.374 419.03,209.519 C410.147,227.285 402.313,238.933 375.467,238.933 C348.621,238.933 340.788,227.285 331.904,209.527 C331.827,209.373 324.267,193.962 324.267,179.2 C324.267,174.49 320.444,170.667 315.734,170.667 L315.734,153.6 C320.444,153.6 324.267,149.777 324.267,145.067 L324.267,136.534 C324.267,117.709 339.576,102.401 358.4,102.401 L392.533,102.401 C411.358,102.401 426.666,117.71 426.666,136.534 L426.666,145.067 C426.666,149.777 430.489,153.6 435.199,153.6 L435.199,170.667 L435.2,170.667 Z" id="Shape"></path>
        </g>
    </g>
</svg>