
<svg width="512px" height="512px" viewBox="0 0 512 512" version="1.1" xmlns="http://www.w3.org/2000/svg" xmlns:xlink="http://www.w3.org/1999/xlink">
    <!-- Generator: Sketch 44.1 (41455) - http://www.bohemiancoding.com/sketch -->
    <desc>Created with Sketch.</desc>
    <defs></defs>
    <g id="Page-1" stroke="none" stroke-width="1" fill="none" fill-rule="evenodd">
        <g id="strategy" fill-rule="nonzero" fill="#3C4253">
            <path d="M287.633,463.3 C284.296,459.963 278.903,459.963 275.567,463.3 C272.23,466.636 272.23,472.03 275.567,475.366 L309.7,509.5 C311.364,511.164 313.549,512 315.733,512 C317.918,512 320.102,511.164 321.766,509.5 C325.103,506.164 325.103,500.77 321.766,497.434 L287.633,463.3 Z" id="Shape"></path>
            <path d="M366.933,221.867 C390.459,221.867 409.6,202.727 409.6,179.2 C409.6,155.673 390.46,136.533 366.933,136.533 C343.406,136.533 324.266,155.673 324.266,179.2 C324.266,202.727 343.407,221.867 366.933,221.867 Z M366.933,153.6 C381.047,153.6 392.533,165.086 392.533,179.2 C392.533,193.314 381.047,204.8 366.933,204.8 C352.819,204.8 341.333,193.314 341.333,179.2 C341.333,165.086 352.819,153.6 366.933,153.6 Z" id="Shape"></path>
            <path d="M256,409.6 C251.281,409.6 247.467,413.423 247.467,418.133 L247.467,440.2 L190.234,497.433 C186.898,500.77 186.898,506.163 190.234,509.499 C191.898,511.163 194.083,511.999 196.267,511.999 C198.452,511.999 200.636,511.163 202.3,509.499 L262.033,449.766 C263.637,448.17 264.533,445.994 264.533,443.733 L264.533,418.133 C264.533,413.423 260.719,409.6 256,409.6 Z" id="Shape"></path>
            <path d="M503.467,17.067 L264.533,17.067 L264.533,8.533 C264.533,3.823 260.719,0 256,0 C251.281,0 247.467,3.823 247.467,8.533 L247.467,17.066 L8.533,17.066 C3.814,17.067 0,20.89 0,25.6 L0,59.733 C0,64.443 3.814,68.266 8.533,68.266 L452.266,68.266 C456.985,68.266 460.799,64.443 460.799,59.733 C460.799,55.023 456.985,51.2 452.266,51.2 L17.066,51.2 L17.066,34.133 L494.933,34.133 L494.933,51.2 L486.4,51.2 C481.681,51.2 477.867,55.023 477.867,59.733 L477.867,349.866 C477.867,363.98 466.381,375.466 452.267,375.466 L59.733,375.466 C45.619,375.466 34.133,363.98 34.133,349.866 L34.133,93.866 C34.133,89.156 30.319,85.333 25.6,85.333 C20.881,85.333 17.067,89.156 17.067,93.866 L17.067,349.866 C17.067,373.392 36.207,392.533 59.734,392.533 L452.267,392.533 C475.793,392.533 494.934,373.393 494.934,349.866 L494.934,68.266 L503.467,68.266 C508.186,68.266 512,64.443 512,59.733 L512,25.6 C512,20.89 508.186,17.067 503.467,17.067 Z" id="Shape"></path>
            <path d="M304.7,275.567 C301.363,272.23 295.97,272.23 292.634,275.567 C289.297,278.903 289.297,284.297 292.634,287.633 L303.668,298.667 L292.634,309.7 C289.297,313.037 289.297,318.43 292.634,321.766 C294.298,323.43 296.483,324.266 298.667,324.266 C300.852,324.266 303.036,323.43 304.7,321.766 L315.734,310.732 L326.768,321.766 C328.432,323.43 330.617,324.266 332.801,324.266 C334.986,324.266 337.17,323.43 338.834,321.766 C342.171,318.429 342.171,313.036 338.834,309.7 L327.8,298.666 L338.834,287.632 C342.171,284.295 342.171,278.902 338.834,275.566 C335.498,272.229 330.104,272.229 326.768,275.566 L315.734,286.6 L304.7,275.567 Z" id="Shape"></path>
            <path d="M119.825,274.526 C109.73,277.956 102.4,287.428 102.4,298.667 C102.4,312.781 113.886,324.267 128,324.267 C142.114,324.267 153.6,312.781 153.6,298.667 C153.6,287.685 146.62,278.375 136.883,274.748 C140.416,226.185 180.958,187.734 230.4,187.734 L278.067,187.734 L258.5,207.3 C255.164,210.637 255.164,216.03 258.5,219.366 C260.164,221.03 262.349,221.866 264.533,221.866 C266.718,221.866 268.902,221.03 270.566,219.366 L304.691,185.241 C305.485,184.447 306.108,183.509 306.543,182.459 C307.405,180.377 307.405,178.022 306.543,175.94 C306.108,174.89 305.485,173.952 304.691,173.167 L270.566,139.034 C267.229,135.697 261.836,135.697 258.5,139.034 C255.164,142.37 255.164,147.764 258.5,151.1 L278.067,170.667 L230.4,170.667 C171.614,170.667 123.503,216.653 119.825,274.526 Z M128,307.2 C123.29,307.2 119.467,303.369 119.467,298.667 C119.467,293.965 123.29,290.134 128,290.134 C132.71,290.134 136.533,293.965 136.533,298.667 C136.533,303.369 132.71,307.2 128,307.2 Z" id="Shape"></path>
            <path d="M87.834,168.166 C89.498,169.83 91.683,170.666 93.867,170.666 C96.052,170.666 98.236,169.83 99.9,168.166 L110.934,157.132 L121.968,168.166 C123.632,169.83 125.817,170.666 128.001,170.666 C130.185,170.666 132.37,169.83 134.034,168.166 C137.371,164.829 137.371,159.436 134.034,156.1 L123,145.066 L134.034,134.032 C137.371,130.695 137.371,125.302 134.034,121.966 C130.697,118.63 125.304,118.63 121.968,121.966 L110.934,133 L99.9,121.967 C96.564,118.631 91.17,118.631 87.834,121.967 C84.497,125.304 84.497,130.697 87.834,134.033 L98.868,145.067 L87.834,156.1 C84.497,159.437 84.497,164.83 87.834,168.166 Z" id="Shape"></path>
        </g>
    </g>
</svg>